HIERARCHY
ROOT Hips
{
    OFFSET 0.000000 0.000000 0.000000
    CHANNELS 6 Xposition Yposition Zposition Zrotation Xrotation Yrotation
    JOINT Spine
    {
        OFFSET -0.000000 7.761268 0.000000
        CHANNELS 3 Zrotation Xrotation Yrotation
        JOINT Spine1
        {
            OFFSET -0.000000 24.785763 0.000000
            CHANNELS 3 Zrotation Xrotation Yrotation
            JOINT Neck
            {
                OFFSET -0.000000 24.683973 2.243998
                CHANNELS 3 Zrotation Xrotation Yrotation
                JOINT Head
                {
                    OFFSET -0.000000 13.250945 -1.892992
                    CHANNELS 3 Zrotation Xrotation Yrotation
                    End Site
                    {
                        OFFSET -0.000000 23.662401 0.000000
                    }
                }
            }
            JOINT LeftShoulder
            {
                OFFSET 3.794134 23.444212 -0.177979
                CHANNELS 3 Zrotation Xrotation Yrotation
                JOINT LeftArm
                {
                    OFFSET 9.211075 0.000000 0.000000
                    CHANNELS 3 Zrotation Xrotation Yrotation
                    JOINT LeftForeArm
                    {
                        OFFSET 34.352840 0.000000 0.000000
                        CHANNELS 3 Zrotation Xrotation Yrotation
                        JOINT LeftHand
                        {
                            OFFSET 25.460636 0.000000 0.000000
                            CHANNELS 3 Zrotation Xrotation Yrotation
                            End Site
                            {
                                OFFSET 14.197442 0.000000 0.000000
                            }
                        }
                    }
                }
            }
            JOINT RightShoulder
            {
                OFFSET -3.767389 23.444212 -0.177979
                CHANNELS 3 Zrotation Xrotation Yrotation
                JOINT RightArm
                {
                    OFFSET -9.211075 0.000000 0.000000
                    CHANNELS 3 Zrotation Xrotation Yrotation
                    JOINT RightForeArm
                    {
                        OFFSET -34.352840 0.000000 0.000000
                        CHANNELS 3 Zrotation Xrotation Yrotation
                        JOINT RightHand
                        {
                            OFFSET -25.460636 0.000000 0.000000
                            CHANNELS 3 Zrotation Xrotation Yrotation
                            End Site
                            {
                                OFFSET -14.197442 0.000000 0.000000
                            }
                        }
                    }
                }
            }
        }
    }
    JOINT LeftUpLeg
    {
        OFFSET 9.464960 0.000000 0.000000
        CHANNELS 3 Zrotation Xrotation Yrotation
        JOINT LeftLeg
        {
            OFFSET -0.000000 -36.073700 0.000000
            CHANNELS 3 Zrotation Xrotation Yrotation
            JOINT LeftFoot
            {
                OFFSET -0.000000 -40.808823 0.000000
                CHANNELS 3 Zrotation Xrotation Yrotation
                JOINT LeftToeBase
                {
                    OFFSET -0.000000 -6.152224 14.197442
                    CHANNELS 3 Zrotation Xrotation Yrotation
                    End Site
                    {
                        OFFSET -0.000000 0.000000 3.785984
                    }
                }
            }
        }
    }
    JOINT RightUpLeg
    {
        OFFSET -9.464960 0.000000 0.000000
        CHANNELS 3 Zrotation Xrotation Yrotation
        JOINT RightLeg
        {
            OFFSET -0.000000 -36.073700 0.000000
            CHANNELS 3 Zrotation Xrotation Yrotation
            JOINT RightFoot
            {
                OFFSET -0.000000 -40.808823 0.000000
                CHANNELS 3 Zrotation Xrotation Yrotation
                JOINT RightToeBase
                {
                    OFFSET -0.000000 -6.152224 14.197442
                    CHANNELS 3 Zrotation Xrotation Yrotation
                    End Site
                    {
                        OFFSET -0.000000 0.000000 3.785984
                    }
                }
            }
        }
    }
}
MOTION
Frames:    8
Frame Time:    0.004000
-17.178932    94.783195    -115.190002    8.777802    -3.379965    0.824053    -2.211222    3.753814    8.234468    -1.713158    -1.961281    8.132651    -0.249192    14.369602    -2.839779    -1.986293    4.729462    -3.154485    -7.010730    15.634770    1.783398    -55.938034    42.015724    17.890600    3.684760    -7.616429    -35.445934    16.397648    -5.410068    7.228124    6.295524    22.066738    -3.588097    40.230919    50.511086    19.483065    -16.817438    -30.686510    87.907600    -12.349653    -14.483120    -10.915174    -6.212378    -33.922535    -4.234867    -115.405357    75.930923    113.992607    8.385136    -7.007107    5.254259    0.000000    0.000000    0.000000    -7.020718    16.029394    -9.500117    3.157209    -1.862161    3.954418    14.110586    28.288282    -26.787144    0.000000    0.000000    0.000000    
-17.140112    94.855698    -114.652718    8.851604    -3.600492    0.732560    -2.299157    3.851523    8.309361    -1.748336    -1.862505    8.203606    -0.340729    14.276595    -2.838974    -1.931654    4.873458    -3.143752    -6.905808    15.622903    1.747301    -56.048862    41.991764    18.403809    3.554088    -7.449018    -35.256828    16.336319    -5.308885    7.123768    6.159781    22.010626    -3.461514    39.911232    50.533173    19.778063    -16.710241    -30.780821    88.581039    -12.582624    -14.494609    -10.799246    -6.284293    -34.009827    -4.253659    -113.436714    76.108780    111.828224    8.300839    -6.962223    5.252074    0.000000    0.000000    0.000000    -7.067993    16.300316    -9.579027    3.157073    -1.949606    3.970158    14.025846    28.369537    -26.629208    0.000000    0.000000    0.000000    
-17.094799    94.910339    -114.123512    8.940392    -3.799025    0.637483    -2.389192    3.938648    8.374786    -1.810498    -1.768634    8.264658    -0.412543    14.214621    -2.805991    -1.897306    4.912408    -3.103761    -6.769123    15.503086    1.691322    -56.342907    42.053253    19.099924    3.526794    -7.303215    -35.066238    16.233559    -5.201735    6.999847    6.051342    22.001989    -3.328861    39.533646    50.591702    20.099051    -16.650492    -31.083641    89.235161    -12.079213    -14.768273    -10.680076    -6.389443    -34.122765    -4.263072    -111.343346    76.300308    109.779144    8.101214    -6.915379    5.160323    0.000000    0.000000    0.000000    -7.135916    16.538296    -9.855262    3.177316    -2.070723    3.975136    13.993836    28.449831    -26.358511    0.000000    0.000000    0.000000    
-17.039066    94.962257    -113.586746    9.052434    -3.959106    0.517022    -2.478868    3.970429    8.456890    -1.914475    -1.660934    8.343184    -0.452371    14.206768    -2.809281    -1.860390    4.892011    -3.102986    -6.616621    15.449088    1.618090    -56.599937    42.103176    19.756310    3.502007    -7.170108    -34.915325    16.099667    -5.098391    6.935441    5.905678    21.917347    -3.085231    39.455959    50.508839    20.126463    -16.481220    -31.148346    89.969490    -11.958865    -14.826561    -10.539285    -6.498257    -34.245770    -4.309768    -108.807381    76.401306    107.281128    7.993804    -6.848739    5.052715    0.000000    0.000000    0.000000    -7.245438    16.759428    -9.787654    3.168748    -2.284275    3.866307    14.002728    28.614986    -26.153734    0.000000    0.000000    0.000000    
-16.988617    95.004868    -113.056801    9.156717    -4.153995    0.431187    -2.598081    4.017811    8.536352    -1.928855    -1.495604    8.420009    -0.232621    14.102067    -2.773410    -2.306470    4.937615    -3.113654    -6.553948    15.354165    1.519338    -56.778057    42.109798    20.376211    3.450946    -7.002733    -34.772472    15.864436    -4.977130    6.852616    5.803439    21.790756    -3.005720    39.146545    50.514816    20.362705    -16.317745    -31.206942    90.641487    -12.196766    -14.853444    -10.454856    -6.623018    -34.318737    -4.420718    -106.191864    76.487274    104.672394    7.925646    -6.766058    4.938903    0.000000    0.000000    0.000000    -7.320585    16.992825    -9.978633    3.133898    -2.471828    3.863002    14.047659    28.657665    -25.873081    0.000000    0.000000    0.000000    
-16.952236    95.008484    -112.551430    9.210565    -4.249168    0.317092    -2.683969    3.959237    8.616482    -1.935422    -1.300567    8.501712    -0.300089    13.920691    -2.767368    -2.276039    5.082760    -3.099576    -6.465845    15.251774    1.442538    -56.960106    42.105267    20.958172    3.404327    -6.832089    -34.645672    15.709558    -4.851085    6.728564    5.693202    21.694197    -2.917978    38.758293    50.541058    20.689741    -16.195892    -31.395994    91.288757    -12.088665    -15.027313    -10.345870    -6.662111    -34.538101    -4.425621    -104.071022    76.627693    102.344597    7.397805    -6.844228    4.908809    0.000000    0.000000    0.000000    -7.316211    17.111963    -10.021598    2.997536    -2.722882    3.847727    14.409001    28.655975    -25.745174    0.000000    0.000000    0.000000    
-16.905807    95.007561    -112.035492    9.309215    -4.331156    0.207560    -2.714274    3.958259    8.667649    -2.164594    -1.212293    8.550924    -0.234847    13.803367    -2.736942    -2.282115    5.168804    -3.068036    -6.249045    15.121109    1.385804    -57.245090    42.127739    21.664391    3.341435    -6.710872    -34.509327    15.474147    -4.785808    6.592946    5.702669    21.597244    -2.757347    38.465534    50.634258    20.911793    -16.186750    -31.653334    91.877693    -12.158465    -15.141197    -10.451759    -6.749022    -34.751114    -4.449880    -101.371651    76.702576    99.707298    7.502257    -6.791660    4.775799    0.000000    0.000000    0.000000    -7.359695    17.210001    -10.074656    2.923784    -2.990747    3.762775    14.412497    28.649611    -25.550913    0.000000    0.000000    0.000000    
-16.875856    95.001175    -111.514488    9.385473    -4.409132    0.134978    -2.756139    3.901364    8.702788    -2.330555    -1.053407    8.587451    -0.210193    13.671795    -2.693875    -2.241847    5.251343    -3.017962    -6.092582    14.986659    1.318199    -57.531570    42.193867    22.388275    3.308132    -6.608554    -34.421440    15.387365    -4.717021    6.476837    5.710039    21.475983    -2.602815    38.147823    50.588634    21.124733    -15.984761    -31.702646    92.559837    -12.387360    -15.186630    -10.483529    -6.817278    -34.941299    -4.528078    -98.547386    76.734528    96.933083    7.353777    -6.667048    4.655210    0.000000    0.000000    0.000000    -7.356776    17.353441    -10.038051    2.886648    -3.326493    3.679978    14.571486    28.543766    -25.661831    0.000000    0.000000    0.000000    
